<mxfile host="app.diagrams.net" agent="Mozilla/5.0 (Windows NT 10.0; Win64; x64) AppleWebKit/537.36 (KHTML, like Gecko) Chrome/131.0.0.0 Safari/537.36" version="24.9.1">
  <diagram name="Strona-1" id="R9v6EbKo91zwUH0VRnxI">
    <mxGraphModel dx="1050" dy="522" grid="1" gridSize="10" guides="1" tooltips="1" connect="1" arrows="1" fold="1" page="1" pageScale="1" pageWidth="827" pageHeight="1169" math="0" shadow="0">
      <root>
        <mxCell id="0" />
        <mxCell id="1" parent="0" />
        <mxCell id="RoVSj_tBiFaYesN0-PBI-1" value="Writer" style="swimlane;fontStyle=1;align=center;verticalAlign=top;childLayout=stackLayout;horizontal=1;startSize=26;horizontalStack=0;resizeParent=1;resizeParentMax=0;resizeLast=0;collapsible=1;marginBottom=0;whiteSpace=wrap;html=1;" parent="1" vertex="1">
          <mxGeometry x="160" y="300" width="170" height="160" as="geometry" />
        </mxCell>
        <mxCell id="RoVSj_tBiFaYesN0-PBI-2" value="-name: String&lt;div&gt;-surname: String&lt;/div&gt;&lt;div&gt;-age: int&lt;/div&gt;" style="text;strokeColor=none;fillColor=none;align=left;verticalAlign=top;spacingLeft=4;spacingRight=4;overflow=hidden;rotatable=0;points=[[0,0.5],[1,0.5]];portConstraint=eastwest;whiteSpace=wrap;html=1;" parent="RoVSj_tBiFaYesN0-PBI-1" vertex="1">
          <mxGeometry y="26" width="170" height="54" as="geometry" />
        </mxCell>
        <mxCell id="RoVSj_tBiFaYesN0-PBI-3" value="" style="line;strokeWidth=1;fillColor=none;align=left;verticalAlign=middle;spacingTop=-1;spacingLeft=3;spacingRight=3;rotatable=0;labelPosition=right;points=[];portConstraint=eastwest;strokeColor=inherit;" parent="RoVSj_tBiFaYesN0-PBI-1" vertex="1">
          <mxGeometry y="80" width="170" height="8" as="geometry" />
        </mxCell>
        <mxCell id="RoVSj_tBiFaYesN0-PBI-4" value="+writeAChapter(): String&lt;div&gt;+publish(): void&lt;/div&gt;&lt;div&gt;+correct(): void&lt;br&gt;&lt;div&gt;&lt;br&gt;&lt;/div&gt;&lt;/div&gt;" style="text;strokeColor=none;fillColor=none;align=left;verticalAlign=top;spacingLeft=4;spacingRight=4;overflow=hidden;rotatable=0;points=[[0,0.5],[1,0.5]];portConstraint=eastwest;whiteSpace=wrap;html=1;" parent="RoVSj_tBiFaYesN0-PBI-1" vertex="1">
          <mxGeometry y="88" width="170" height="72" as="geometry" />
        </mxCell>
        <mxCell id="RoVSj_tBiFaYesN0-PBI-5" value="Book" style="swimlane;fontStyle=1;align=center;verticalAlign=top;childLayout=stackLayout;horizontal=1;startSize=26;horizontalStack=0;resizeParent=1;resizeParentMax=0;resizeLast=0;collapsible=1;marginBottom=0;whiteSpace=wrap;html=1;" parent="1" vertex="1">
          <mxGeometry x="490" y="300" width="230" height="230" as="geometry" />
        </mxCell>
        <mxCell id="RoVSj_tBiFaYesN0-PBI-6" value="-title: String&lt;div&gt;-numOfPages: int&lt;/div&gt;&lt;div&gt;-genre: String&lt;/div&gt;&lt;div&gt;-author: Writer&lt;/div&gt;&lt;div&gt;- chapters: ArrayList&amp;lt;Chapter&amp;gt;&lt;br&gt;&lt;div&gt;&lt;br&gt;&lt;/div&gt;&lt;/div&gt;" style="text;strokeColor=none;fillColor=none;align=left;verticalAlign=top;spacingLeft=4;spacingRight=4;overflow=hidden;rotatable=0;points=[[0,0.5],[1,0.5]];portConstraint=eastwest;whiteSpace=wrap;html=1;" parent="RoVSj_tBiFaYesN0-PBI-5" vertex="1">
          <mxGeometry y="26" width="230" height="94" as="geometry" />
        </mxCell>
        <mxCell id="RoVSj_tBiFaYesN0-PBI-7" value="" style="line;strokeWidth=1;fillColor=none;align=left;verticalAlign=middle;spacingTop=-1;spacingLeft=3;spacingRight=3;rotatable=0;labelPosition=right;points=[];portConstraint=eastwest;strokeColor=inherit;" parent="RoVSj_tBiFaYesN0-PBI-5" vertex="1">
          <mxGeometry y="120" width="230" height="8" as="geometry" />
        </mxCell>
        <mxCell id="RoVSj_tBiFaYesN0-PBI-8" value="+open(): void&lt;div&gt;+read(): void&lt;/div&gt;&lt;div&gt;+close(): void&lt;/div&gt;&lt;div&gt;+ addChapter(chapter: Chapter): void&lt;/div&gt;&lt;div&gt;+ removeChapter(chapter: Chapter): void&lt;/div&gt;" style="text;strokeColor=none;fillColor=none;align=left;verticalAlign=top;spacingLeft=4;spacingRight=4;overflow=hidden;rotatable=0;points=[[0,0.5],[1,0.5]];portConstraint=eastwest;whiteSpace=wrap;html=1;" parent="RoVSj_tBiFaYesN0-PBI-5" vertex="1">
          <mxGeometry y="128" width="230" height="102" as="geometry" />
        </mxCell>
        <mxCell id="RoVSj_tBiFaYesN0-PBI-13" value="" style="endArrow=open;html=1;endSize=12;startArrow=diamondThin;startSize=14;startFill=0;edgeStyle=orthogonalEdgeStyle;align=left;verticalAlign=bottom;rounded=0;" parent="1" edge="1">
          <mxGeometry x="-1" y="3" relative="1" as="geometry">
            <mxPoint x="490" y="370" as="sourcePoint" />
            <mxPoint x="330" y="370" as="targetPoint" />
          </mxGeometry>
        </mxCell>
        <mxCell id="ZUzVWdgMVnzWPRbxvTfo-1" value="Chapter" style="swimlane;fontStyle=1;align=center;verticalAlign=top;childLayout=stackLayout;horizontal=1;startSize=26;horizontalStack=0;resizeParent=1;resizeParentMax=0;resizeLast=0;collapsible=1;marginBottom=0;whiteSpace=wrap;html=1;" vertex="1" parent="1">
          <mxGeometry x="520" y="700" width="200" height="158" as="geometry" />
        </mxCell>
        <mxCell id="ZUzVWdgMVnzWPRbxvTfo-2" value="- title: String&lt;div&gt;- number: int&lt;/div&gt;&lt;div&gt;- content: String&lt;/div&gt;" style="text;strokeColor=none;fillColor=none;align=left;verticalAlign=top;spacingLeft=4;spacingRight=4;overflow=hidden;rotatable=0;points=[[0,0.5],[1,0.5]];portConstraint=eastwest;whiteSpace=wrap;html=1;" vertex="1" parent="ZUzVWdgMVnzWPRbxvTfo-1">
          <mxGeometry y="26" width="200" height="54" as="geometry" />
        </mxCell>
        <mxCell id="ZUzVWdgMVnzWPRbxvTfo-3" value="" style="line;strokeWidth=1;fillColor=none;align=left;verticalAlign=middle;spacingTop=-1;spacingLeft=3;spacingRight=3;rotatable=0;labelPosition=right;points=[];portConstraint=eastwest;strokeColor=inherit;" vertex="1" parent="ZUzVWdgMVnzWPRbxvTfo-1">
          <mxGeometry y="80" width="200" height="18" as="geometry" />
        </mxCell>
        <mxCell id="ZUzVWdgMVnzWPRbxvTfo-4" value="+ setContent(content: String): void&lt;div&gt;+ getChapterSummary(): String&lt;/div&gt;&lt;div&gt;+ getChapterDetails(): String&lt;/div&gt;" style="text;strokeColor=none;fillColor=none;align=left;verticalAlign=top;spacingLeft=4;spacingRight=4;overflow=hidden;rotatable=0;points=[[0,0.5],[1,0.5]];portConstraint=eastwest;whiteSpace=wrap;html=1;" vertex="1" parent="ZUzVWdgMVnzWPRbxvTfo-1">
          <mxGeometry y="98" width="200" height="60" as="geometry" />
        </mxCell>
        <mxCell id="ZUzVWdgMVnzWPRbxvTfo-5" value="" style="endArrow=open;html=1;endSize=12;startArrow=diamondThin;startSize=14;startFill=1;edgeStyle=orthogonalEdgeStyle;align=left;verticalAlign=bottom;rounded=0;" edge="1" parent="1" target="ZUzVWdgMVnzWPRbxvTfo-1">
          <mxGeometry x="-1" y="3" relative="1" as="geometry">
            <mxPoint x="605" y="540" as="sourcePoint" />
            <mxPoint x="520" y="560" as="targetPoint" />
            <Array as="points">
              <mxPoint x="606" y="560" />
              <mxPoint x="605" y="560" />
            </Array>
          </mxGeometry>
        </mxCell>
      </root>
    </mxGraphModel>
  </diagram>
</mxfile>
